<svg width="90" height="87" viewBox="0 0 90 87" fill="none" xmlns="http://www.w3.org/2000/svg">
<rect x="1.21777" y="0.75" width="87.5" height="85.5" rx="42.75" fill="#E6F1F9"/>
<path d="M51.2645 58.8943L48.0028 55.328L46.2272 57.2695L51.2645 62.7773L61.3393 51.7617L59.5636 49.8202L51.2645 58.8943ZM34.8931 44.877H43.7085V47.6309H34.8931V44.877ZM34.8931 37.9922H50.0052V40.7461H34.8931V37.9922ZM34.8931 31.1074H50.0052V33.8613H34.8931V31.1074Z" fill="#003E6B"/>
<path d="M43.7084 62.7773H31.115C29.7259 62.7773 28.5963 61.5422 28.5963 60.0234V26.9766C28.5963 25.4578 29.7259 24.2227 31.115 24.2227H53.7832C55.1722 24.2227 56.3019 25.4578 56.3019 26.9766V47.6309H53.7832V26.9766H31.115V60.0234H43.7084V62.7773Z" fill="#003E6B"/>
<rect x="1.21777" y="0.75" width="87.5" height="85.5" rx="42.75" stroke="#0067B2" stroke-width="1.5"/>
</svg>
