<svg width="39" height="39" viewBox="0 0 39 39" fill="none" xmlns="http://www.w3.org/2000/svg">
<rect x="0.937988" y="0.581055" width="38" height="38" rx="19" fill="white"/>
<path d="M26.938 10.5811C27.4684 10.5811 27.9771 10.7918 28.3522 11.1668C28.7273 11.5419 28.938 12.0506 28.938 12.5811V26.5811C28.938 27.1115 28.7273 27.6202 28.3522 27.9953C27.9771 28.3703 27.4684 28.5811 26.938 28.5811H12.938C12.4076 28.5811 11.8988 28.3703 11.5238 27.9953C11.1487 27.6202 10.938 27.1115 10.938 26.5811V12.5811C10.938 12.0506 11.1487 11.5419 11.5238 11.1668C11.8988 10.7918 12.4076 10.5811 12.938 10.5811H26.938ZM26.438 26.0811V20.7811C26.438 19.9164 26.0945 19.0873 25.4832 18.4759C24.8718 17.8645 24.0426 17.5211 23.178 17.5211C22.328 17.5211 21.338 18.0411 20.858 18.8211V17.7111H18.068V26.0811H20.858V21.1511C20.858 20.3811 21.478 19.7511 22.248 19.7511C22.6193 19.7511 22.9754 19.8986 23.2379 20.1611C23.5005 20.4237 23.648 20.7798 23.648 21.1511V26.0811H26.438ZM14.818 16.1411C15.2636 16.1411 15.6909 15.9641 16.0059 15.649C16.321 15.3339 16.498 14.9066 16.498 14.4611C16.498 13.5311 15.748 12.7711 14.818 12.7711C14.3698 12.7711 13.9399 12.9491 13.623 13.266C13.306 13.583 13.128 14.0128 13.128 14.4611C13.128 15.3911 13.888 16.1411 14.818 16.1411ZM16.208 26.0811V17.7111H13.438V26.0811H16.208Z" fill="#0067B2"/>
</svg>
