<svg width="172" height="67" viewBox="0 0 172 67" fill="none" xmlns="http://www.w3.org/2000/svg">
<path d="M26.509 42.1096C25.4823 42.1096 24.5583 41.9336 23.737 41.5816C22.9156 41.2149 22.2703 40.7016 21.801 40.0416C21.3316 39.3816 21.097 38.6116 21.097 37.7316H23.781C23.8396 38.3916 24.0963 38.9342 24.551 39.3596C25.0203 39.7849 25.673 39.9976 26.509 39.9976C27.3743 39.9976 28.049 39.7922 28.533 39.3816C29.017 38.9562 29.259 38.4136 29.259 37.7536C29.259 37.2402 29.105 36.8222 28.797 36.4996C28.5036 36.1769 28.1296 35.9276 27.675 35.7516C27.235 35.5756 26.619 35.3849 25.827 35.1796C24.8296 34.9156 24.0156 34.6516 23.385 34.3876C22.769 34.1089 22.241 33.6836 21.801 33.1116C21.361 32.5396 21.141 31.7769 21.141 30.8236C21.141 29.9436 21.361 29.1736 21.801 28.5136C22.241 27.8536 22.857 27.3476 23.649 26.9956C24.441 26.6436 25.3576 26.4676 26.399 26.4676C27.8803 26.4676 29.0903 26.8416 30.029 27.5896C30.9823 28.3229 31.5103 29.3349 31.613 30.6256H28.841C28.797 30.0682 28.533 29.5916 28.049 29.1956C27.565 28.7996 26.927 28.6016 26.135 28.6016C25.4163 28.6016 24.8296 28.7849 24.375 29.1516C23.9203 29.5182 23.693 30.0462 23.693 30.7356C23.693 31.2049 23.8323 31.5936 24.111 31.9016C24.4043 32.1949 24.771 32.4296 25.211 32.6056C25.651 32.7816 26.2523 32.9722 27.015 33.1776C28.027 33.4562 28.8483 33.7349 29.479 34.0136C30.1243 34.2922 30.667 34.7249 31.107 35.3116C31.5616 35.8836 31.789 36.6536 31.789 37.6216C31.789 38.3989 31.5763 39.1322 31.151 39.8216C30.7403 40.5109 30.1316 41.0682 29.325 41.4936C28.533 41.9042 27.5943 42.1096 26.509 42.1096ZM38.2563 31.6156C38.6816 31.0582 39.261 30.5889 39.9943 30.2076C40.7276 29.8262 41.5563 29.6356 42.4803 29.6356C43.5363 29.6356 44.497 29.8996 45.3623 30.4276C46.2423 30.9409 46.9316 31.6669 47.4303 32.6056C47.929 33.5442 48.1783 34.6222 48.1783 35.8396C48.1783 37.0569 47.929 38.1496 47.4303 39.1176C46.9316 40.0709 46.2423 40.8189 45.3623 41.3616C44.497 41.8896 43.5363 42.1536 42.4803 42.1536C41.5563 42.1536 40.735 41.9702 40.0163 41.6036C39.2976 41.2222 38.711 40.7529 38.2563 40.1956V47.7196H35.7483V29.8336H38.2563V31.6156ZM45.6263 35.8396C45.6263 35.0036 45.4503 34.2849 45.0983 33.6836C44.761 33.0676 44.3063 32.6056 43.7343 32.2976C43.177 31.9749 42.5756 31.8136 41.9303 31.8136C41.2996 31.8136 40.6983 31.9749 40.1263 32.2976C39.569 32.6202 39.1143 33.0896 38.7623 33.7056C38.425 34.3216 38.2563 35.0476 38.2563 35.8836C38.2563 36.7196 38.425 37.4529 38.7623 38.0836C39.1143 38.6996 39.569 39.1689 40.1263 39.4916C40.6983 39.8142 41.2996 39.9756 41.9303 39.9756C42.5756 39.9756 43.177 39.8142 43.7343 39.4916C44.3063 39.1542 44.761 38.6702 45.0983 38.0396C45.4503 37.4089 45.6263 36.6756 45.6263 35.8396ZM50.8225 35.8396C50.8225 34.6222 51.0718 33.5442 51.5705 32.6056C52.0838 31.6669 52.7731 30.9409 53.6385 30.4276C54.5185 29.8996 55.4865 29.6356 56.5425 29.6356C57.4958 29.6356 58.3245 29.8262 59.0285 30.2076C59.7471 30.5742 60.3191 31.0362 60.7445 31.5936V29.8336H63.2745V41.9556H60.7445V40.1516C60.3191 40.7236 59.7398 41.2002 59.0065 41.5816C58.2731 41.9629 57.4371 42.1536 56.4985 42.1536C55.4571 42.1536 54.5038 41.8896 53.6385 41.3616C52.7731 40.8189 52.0838 40.0709 51.5705 39.1176C51.0718 38.1496 50.8225 37.0569 50.8225 35.8396ZM60.7445 35.8836C60.7445 35.0476 60.5685 34.3216 60.2165 33.7056C59.8791 33.0896 59.4318 32.6202 58.8745 32.2976C58.3171 31.9749 57.7158 31.8136 57.0705 31.8136C56.4251 31.8136 55.8238 31.9749 55.2665 32.2976C54.7091 32.6056 54.2545 33.0676 53.9025 33.6836C53.5651 34.2849 53.3965 35.0036 53.3965 35.8396C53.3965 36.6756 53.5651 37.4089 53.9025 38.0396C54.2545 38.6702 54.7091 39.1542 55.2665 39.4916C55.8385 39.8142 56.4398 39.9756 57.0705 39.9756C57.7158 39.9756 58.3171 39.8142 58.8745 39.4916C59.4318 39.1689 59.8791 38.6996 60.2165 38.0836C60.5685 37.4529 60.7445 36.7196 60.7445 35.8836ZM66.7326 35.8836C66.7326 34.6369 66.9819 33.5442 67.4806 32.6056C67.9939 31.6522 68.6979 30.9189 69.5926 30.4056C70.4873 29.8922 71.5139 29.6356 72.6726 29.6356C74.1393 29.6356 75.3493 29.9876 76.3026 30.6916C77.2706 31.3809 77.9233 32.3709 78.2606 33.6616H75.5546C75.3346 33.0602 74.9826 32.5909 74.4986 32.2536C74.0146 31.9162 73.4059 31.7476 72.6726 31.7476C71.6459 31.7476 70.8246 32.1142 70.2086 32.8476C69.6073 33.5662 69.3066 34.5782 69.3066 35.8836C69.3066 37.1889 69.6073 38.2082 70.2086 38.9416C70.8246 39.6749 71.6459 40.0416 72.6726 40.0416C74.1246 40.0416 75.0853 39.4036 75.5546 38.1276H78.2606C77.9086 39.3596 77.2486 40.3422 76.2806 41.0756C75.3126 41.7942 74.1099 42.1536 72.6726 42.1536C71.5139 42.1536 70.4873 41.8969 69.5926 41.3836C68.6979 40.8556 67.9939 40.1222 67.4806 39.1836C66.9819 38.2302 66.7326 37.1302 66.7326 35.8836ZM92.87 35.5976C92.87 36.0522 92.8407 36.4629 92.782 36.8296H83.52C83.5933 37.7976 83.9527 38.5749 84.598 39.1616C85.2433 39.7482 86.0353 40.0416 86.974 40.0416C88.3233 40.0416 89.2767 39.4769 89.834 38.3476H92.54C92.1733 39.4622 91.506 40.3789 90.538 41.0976C89.5847 41.8016 88.3967 42.1536 86.974 42.1536C85.8153 42.1536 84.774 41.8969 83.85 41.3836C82.9407 40.8556 82.222 40.1222 81.694 39.1836C81.1807 38.2302 80.924 37.1302 80.924 35.8836C80.924 34.6369 81.1733 33.5442 81.672 32.6056C82.1853 31.6522 82.8967 30.9189 83.806 30.4056C84.73 29.8922 85.786 29.6356 86.974 29.6356C88.118 29.6356 89.1373 29.8849 90.032 30.3836C90.9267 30.8822 91.6233 31.5862 92.122 32.4956C92.6207 33.3902 92.87 34.4242 92.87 35.5976ZM90.252 34.8056C90.2373 33.8816 89.9073 33.1409 89.262 32.5836C88.6167 32.0262 87.8173 31.7476 86.864 31.7476C85.9987 31.7476 85.258 32.0262 84.642 32.5836C84.026 33.1262 83.6593 33.8669 83.542 34.8056H90.252ZM104.522 34.1016C105.343 34.2482 106.04 34.6809 106.612 35.3996C107.184 36.1182 107.47 36.9322 107.47 37.8416C107.47 38.6189 107.265 39.3229 106.854 39.9536C106.458 40.5696 105.879 41.0609 105.116 41.4276C104.353 41.7796 103.466 41.9556 102.454 41.9556H96.3381V26.6656H102.168C103.209 26.6656 104.104 26.8416 104.852 27.1936C105.6 27.5456 106.165 28.0222 106.546 28.6236C106.927 29.2102 107.118 29.8702 107.118 30.6036C107.118 31.4836 106.883 32.2169 106.414 32.8036C105.945 33.3902 105.314 33.8229 104.522 34.1016ZM98.8461 33.0896H101.948C102.769 33.0896 103.407 32.9062 103.862 32.5396C104.331 32.1582 104.566 31.6156 104.566 30.9116C104.566 30.2222 104.331 29.6869 103.862 29.3056C103.407 28.9096 102.769 28.7116 101.948 28.7116H98.8461V33.0896ZM102.234 39.9096C103.085 39.9096 103.752 39.7042 104.236 39.2936C104.72 38.8829 104.962 38.3109 104.962 37.5776C104.962 36.8296 104.705 36.2356 104.192 35.7956C103.679 35.3556 102.997 35.1356 102.146 35.1356H98.8461V39.9096H102.234ZM116.454 42.1536C115.31 42.1536 114.276 41.8969 113.352 41.3836C112.428 40.8556 111.702 40.1222 111.174 39.1836C110.646 38.2302 110.382 37.1302 110.382 35.8836C110.382 34.6516 110.653 33.5589 111.196 32.6056C111.738 31.6522 112.479 30.9189 113.418 30.4056C114.356 29.8922 115.405 29.6356 116.564 29.6356C117.722 29.6356 118.771 29.8922 119.71 30.4056C120.648 30.9189 121.389 31.6522 121.932 32.6056C122.474 33.5589 122.746 34.6516 122.746 35.8836C122.746 37.1156 122.467 38.2082 121.91 39.1616C121.352 40.1149 120.59 40.8556 119.622 41.3836C118.668 41.8969 117.612 42.1536 116.454 42.1536ZM116.454 39.9756C117.099 39.9756 117.7 39.8216 118.258 39.5136C118.83 39.2056 119.292 38.7436 119.644 38.1276C119.996 37.5116 120.172 36.7636 120.172 35.8836C120.172 35.0036 120.003 34.2629 119.666 33.6616C119.328 33.0456 118.881 32.5836 118.324 32.2756C117.766 31.9676 117.165 31.8136 116.52 31.8136C115.874 31.8136 115.273 31.9676 114.716 32.2756C114.173 32.5836 113.74 33.0456 113.418 33.6616C113.095 34.2629 112.934 35.0036 112.934 35.8836C112.934 37.1889 113.264 38.2009 113.924 38.9196C114.598 39.6236 115.442 39.9756 116.454 39.9756ZM131.483 42.1536C130.339 42.1536 129.305 41.8969 128.381 41.3836C127.457 40.8556 126.731 40.1222 126.203 39.1836C125.675 38.2302 125.411 37.1302 125.411 35.8836C125.411 34.6516 125.682 33.5589 126.225 32.6056C126.768 31.6522 127.508 30.9189 128.447 30.4056C129.386 29.8922 130.434 29.6356 131.593 29.6356C132.752 29.6356 133.8 29.8922 134.739 30.4056C135.678 30.9189 136.418 31.6522 136.961 32.6056C137.504 33.5589 137.775 34.6516 137.775 35.8836C137.775 37.1156 137.496 38.2082 136.939 39.1616C136.382 40.1149 135.619 40.8556 134.651 41.3836C133.698 41.8969 132.642 42.1536 131.483 42.1536ZM131.483 39.9756C132.128 39.9756 132.73 39.8216 133.287 39.5136C133.859 39.2056 134.321 38.7436 134.673 38.1276C135.025 37.5116 135.201 36.7636 135.201 35.8836C135.201 35.0036 135.032 34.2629 134.695 33.6616C134.358 33.0456 133.91 32.5836 133.353 32.2756C132.796 31.9676 132.194 31.8136 131.549 31.8136C130.904 31.8136 130.302 31.9676 129.745 32.2756C129.202 32.5836 128.77 33.0456 128.447 33.6616C128.124 34.2629 127.963 35.0036 127.963 35.8836C127.963 37.1889 128.293 38.2009 128.953 38.9196C129.628 39.6236 130.471 39.9756 131.483 39.9756ZM146.05 35.9056L151.638 41.9556H148.25L143.762 36.7416V41.9556H141.254V25.6756H143.762V35.1356L148.162 29.8336H151.638L146.05 35.9056Z" fill="black"/>
<line x1="0.977529" y1="5.76611" x2="144.648" y2="5.74268" stroke="#004D86" stroke-width="2"/>
<line x1="3.07486" y1="65.7661" x2="171.022" y2="65.7661" stroke="#004D86" stroke-width="2"/>
<line x1="2.07486" y1="66.7661" x2="2.07486" y2="6.76611" stroke="#004D86" stroke-width="2"/>
<line x1="170.022" y1="66.7481" x2="169.795" y2="25.088" stroke="#004D86" stroke-width="2"/>
<path d="M158.968 14.7064V8.5039H152.134V6.43639H158.968V0.233887H161.246V6.43639H168.079V8.5039H161.246V14.7064H158.968Z" fill="#E6681A"/>
<rect x="153.022" y="17.8857" width="11.2122" height="2.65796" fill="#E6681A"/>
<path d="M161.907 18.9568L169.6 10.3007L170.718 12.3373L164.232 20.5321L161.907 18.9568Z" fill="#E6681A"/>
</svg>
