<svg width="171" height="68" viewBox="0 0 171 68" fill="none" xmlns="http://www.w3.org/2000/svg">
<path d="M25.667 42.4245C24.6403 42.4245 23.7163 42.2485 22.895 41.8965C22.0737 41.5298 21.4283 41.0165 20.959 40.3565C20.4897 39.6965 20.255 38.9265 20.255 38.0465H22.939C22.9977 38.7065 23.2543 39.2492 23.709 39.6745C24.1783 40.0998 24.831 40.3125 25.667 40.3125C26.5323 40.3125 27.207 40.1072 27.691 39.6965C28.175 39.2712 28.417 38.7285 28.417 38.0685C28.417 37.5552 28.263 37.1372 27.955 36.8145C27.6617 36.4918 27.2877 36.2425 26.833 36.0665C26.393 35.8905 25.777 35.6998 24.985 35.4945C23.9877 35.2305 23.1737 34.9665 22.543 34.7025C21.927 34.4238 21.399 33.9985 20.959 33.4265C20.519 32.8545 20.299 32.0918 20.299 31.1385C20.299 30.2585 20.519 29.4885 20.959 28.8285C21.399 28.1685 22.015 27.6625 22.807 27.3105C23.599 26.9585 24.5157 26.7825 25.557 26.7825C27.0383 26.7825 28.2483 27.1565 29.187 27.9045C30.1403 28.6378 30.6683 29.6498 30.771 30.9405H27.999C27.955 30.3832 27.691 29.9065 27.207 29.5105C26.723 29.1145 26.085 28.9165 25.293 28.9165C24.5743 28.9165 23.9877 29.0998 23.533 29.4665C23.0783 29.8332 22.851 30.3612 22.851 31.0505C22.851 31.5198 22.9903 31.9085 23.269 32.2165C23.5623 32.5098 23.929 32.7445 24.369 32.9205C24.809 33.0965 25.4103 33.2872 26.173 33.4925C27.185 33.7712 28.0063 34.0498 28.637 34.3285C29.2823 34.6072 29.825 35.0398 30.265 35.6265C30.7197 36.1985 30.947 36.9685 30.947 37.9365C30.947 38.7138 30.7343 39.4472 30.309 40.1365C29.8983 40.8258 29.2897 41.3832 28.483 41.8085C27.691 42.2192 26.7523 42.4245 25.667 42.4245ZM37.4143 31.9305C37.8397 31.3732 38.419 30.9038 39.1523 30.5225C39.8857 30.1412 40.7143 29.9505 41.6383 29.9505C42.6943 29.9505 43.655 30.2145 44.5203 30.7425C45.4003 31.2558 46.0897 31.9818 46.5883 32.9205C47.087 33.8592 47.3363 34.9372 47.3363 36.1545C47.3363 37.3718 47.087 38.4645 46.5883 39.4325C46.0897 40.3858 45.4003 41.1338 44.5203 41.6765C43.655 42.2045 42.6943 42.4685 41.6383 42.4685C40.7143 42.4685 39.893 42.2852 39.1743 41.9185C38.4557 41.5372 37.869 41.0678 37.4143 40.5105V48.0345H34.9063V30.1485H37.4143V31.9305ZM44.7843 36.1545C44.7843 35.3185 44.6083 34.5998 44.2563 33.9985C43.919 33.3825 43.4643 32.9205 42.8923 32.6125C42.335 32.2898 41.7337 32.1285 41.0883 32.1285C40.4577 32.1285 39.8563 32.2898 39.2843 32.6125C38.727 32.9352 38.2723 33.4045 37.9203 34.0205C37.583 34.6365 37.4143 35.3625 37.4143 36.1985C37.4143 37.0345 37.583 37.7678 37.9203 38.3985C38.2723 39.0145 38.727 39.4838 39.2843 39.8065C39.8563 40.1292 40.4577 40.2905 41.0883 40.2905C41.7337 40.2905 42.335 40.1292 42.8923 39.8065C43.4643 39.4692 43.919 38.9852 44.2563 38.3545C44.6083 37.7238 44.7843 36.9905 44.7843 36.1545ZM49.9805 36.1545C49.9805 34.9372 50.2298 33.8592 50.7285 32.9205C51.2418 31.9818 51.9312 31.2558 52.7965 30.7425C53.6765 30.2145 54.6445 29.9505 55.7005 29.9505C56.6538 29.9505 57.4825 30.1412 58.1865 30.5225C58.9052 30.8892 59.4772 31.3512 59.9025 31.9085V30.1485H62.4325V42.2705H59.9025V40.4665C59.4772 41.0385 58.8978 41.5152 58.1645 41.8965C57.4312 42.2778 56.5952 42.4685 55.6565 42.4685C54.6152 42.4685 53.6618 42.2045 52.7965 41.6765C51.9312 41.1338 51.2418 40.3858 50.7285 39.4325C50.2298 38.4645 49.9805 37.3718 49.9805 36.1545ZM59.9025 36.1985C59.9025 35.3625 59.7265 34.6365 59.3745 34.0205C59.0372 33.4045 58.5898 32.9352 58.0325 32.6125C57.4752 32.2898 56.8738 32.1285 56.2285 32.1285C55.5832 32.1285 54.9818 32.2898 54.4245 32.6125C53.8672 32.9205 53.4125 33.3825 53.0605 33.9985C52.7232 34.5998 52.5545 35.3185 52.5545 36.1545C52.5545 36.9905 52.7232 37.7238 53.0605 38.3545C53.4125 38.9852 53.8672 39.4692 54.4245 39.8065C54.9965 40.1292 55.5978 40.2905 56.2285 40.2905C56.8738 40.2905 57.4752 40.1292 58.0325 39.8065C58.5898 39.4838 59.0372 39.0145 59.3745 38.3985C59.7265 37.7678 59.9025 37.0345 59.9025 36.1985ZM65.8907 36.1985C65.8907 34.9518 66.14 33.8592 66.6387 32.9205C67.152 31.9672 67.856 31.2338 68.7507 30.7205C69.6453 30.2072 70.672 29.9505 71.8307 29.9505C73.2973 29.9505 74.5073 30.3025 75.4607 31.0065C76.4287 31.6958 77.0813 32.6858 77.4187 33.9765H74.7127C74.4927 33.3752 74.1407 32.9058 73.6567 32.5685C73.1727 32.2312 72.564 32.0625 71.8307 32.0625C70.804 32.0625 69.9827 32.4292 69.3667 33.1625C68.7653 33.8812 68.4647 34.8932 68.4647 36.1985C68.4647 37.5038 68.7653 38.5232 69.3667 39.2565C69.9827 39.9898 70.804 40.3565 71.8307 40.3565C73.2827 40.3565 74.2433 39.7185 74.7127 38.4425H77.4187C77.0667 39.6745 76.4067 40.6572 75.4387 41.3905C74.4707 42.1092 73.268 42.4685 71.8307 42.4685C70.672 42.4685 69.6453 42.2118 68.7507 41.6985C67.856 41.1705 67.152 40.4372 66.6387 39.4985C66.14 38.5452 65.8907 37.4452 65.8907 36.1985ZM92.0281 35.9125C92.0281 36.3672 91.9987 36.7778 91.9401 37.1445H82.6781C82.7514 38.1125 83.1107 38.8898 83.7561 39.4765C84.4014 40.0632 85.1934 40.3565 86.1321 40.3565C87.4814 40.3565 88.4347 39.7918 88.9921 38.6625H91.6981C91.3314 39.7772 90.6641 40.6938 89.6961 41.4125C88.7427 42.1165 87.5547 42.4685 86.1321 42.4685C84.9734 42.4685 83.9321 42.2118 83.0081 41.6985C82.0987 41.1705 81.3801 40.4372 80.8521 39.4985C80.3387 38.5452 80.0821 37.4452 80.0821 36.1985C80.0821 34.9518 80.3314 33.8592 80.8301 32.9205C81.3434 31.9672 82.0547 31.2338 82.9641 30.7205C83.8881 30.2072 84.9441 29.9505 86.1321 29.9505C87.2761 29.9505 88.2954 30.1998 89.1901 30.6985C90.0847 31.1972 90.7814 31.9012 91.2801 32.8105C91.7787 33.7052 92.0281 34.7392 92.0281 35.9125ZM89.4101 35.1205C89.3954 34.1965 89.0654 33.4558 88.4201 32.8985C87.7747 32.3412 86.9754 32.0625 86.0221 32.0625C85.1567 32.0625 84.4161 32.3412 83.8001 32.8985C83.1841 33.4412 82.8174 34.1818 82.7001 35.1205H89.4101ZM103.68 34.4165C104.502 34.5632 105.198 34.9958 105.77 35.7145C106.342 36.4332 106.628 37.2472 106.628 38.1565C106.628 38.9338 106.423 39.6378 106.012 40.2685C105.616 40.8845 105.037 41.3758 104.274 41.7425C103.512 42.0945 102.624 42.2705 101.612 42.2705H95.4962V26.9805H101.326C102.368 26.9805 103.262 27.1565 104.01 27.5085C104.758 27.8605 105.323 28.3372 105.704 28.9385C106.086 29.5252 106.276 30.1852 106.276 30.9185C106.276 31.7985 106.042 32.5318 105.572 33.1185C105.103 33.7052 104.472 34.1378 103.68 34.4165ZM98.0042 33.4045H101.106C101.928 33.4045 102.566 33.2212 103.02 32.8545C103.49 32.4732 103.724 31.9305 103.724 31.2265C103.724 30.5372 103.49 30.0018 103.02 29.6205C102.566 29.2245 101.928 29.0265 101.106 29.0265H98.0042V33.4045ZM101.392 40.2245C102.243 40.2245 102.91 40.0192 103.394 39.6085C103.878 39.1978 104.12 38.6258 104.12 37.8925C104.12 37.1445 103.864 36.5505 103.35 36.1105C102.837 35.6705 102.155 35.4505 101.304 35.4505H98.0042V40.2245H101.392ZM115.612 42.4685C114.468 42.4685 113.434 42.2118 112.51 41.6985C111.586 41.1705 110.86 40.4372 110.332 39.4985C109.804 38.5452 109.54 37.4452 109.54 36.1985C109.54 34.9665 109.811 33.8738 110.354 32.9205C110.896 31.9672 111.637 31.2338 112.576 30.7205C113.514 30.2072 114.563 29.9505 115.722 29.9505C116.88 29.9505 117.929 30.2072 118.868 30.7205C119.806 31.2338 120.547 31.9672 121.09 32.9205C121.632 33.8738 121.904 34.9665 121.904 36.1985C121.904 37.4305 121.625 38.5232 121.068 39.4765C120.51 40.4298 119.748 41.1705 118.78 41.6985C117.826 42.2118 116.77 42.4685 115.612 42.4685ZM115.612 40.2905C116.257 40.2905 116.858 40.1365 117.416 39.8285C117.988 39.5205 118.45 39.0585 118.802 38.4425C119.154 37.8265 119.33 37.0785 119.33 36.1985C119.33 35.3185 119.161 34.5778 118.824 33.9765C118.486 33.3605 118.039 32.8985 117.482 32.5905C116.924 32.2825 116.323 32.1285 115.678 32.1285C115.032 32.1285 114.431 32.2825 113.874 32.5905C113.331 32.8985 112.898 33.3605 112.576 33.9765C112.253 34.5778 112.092 35.3185 112.092 36.1985C112.092 37.5038 112.422 38.5158 113.082 39.2345C113.756 39.9385 114.6 40.2905 115.612 40.2905ZM130.641 42.4685C129.497 42.4685 128.463 42.2118 127.539 41.6985C126.615 41.1705 125.889 40.4372 125.361 39.4985C124.833 38.5452 124.569 37.4452 124.569 36.1985C124.569 34.9665 124.84 33.8738 125.383 32.9205C125.926 31.9672 126.666 31.2338 127.605 30.7205C128.544 30.2072 129.592 29.9505 130.751 29.9505C131.91 29.9505 132.958 30.2072 133.897 30.7205C134.836 31.2338 135.576 31.9672 136.119 32.9205C136.662 33.8738 136.933 34.9665 136.933 36.1985C136.933 37.4305 136.654 38.5232 136.097 39.4765C135.54 40.4298 134.777 41.1705 133.809 41.6985C132.856 42.2118 131.8 42.4685 130.641 42.4685ZM130.641 40.2905C131.286 40.2905 131.888 40.1365 132.445 39.8285C133.017 39.5205 133.479 39.0585 133.831 38.4425C134.183 37.8265 134.359 37.0785 134.359 36.1985C134.359 35.3185 134.19 34.5778 133.853 33.9765C133.516 33.3605 133.068 32.8985 132.511 32.5905C131.954 32.2825 131.352 32.1285 130.707 32.1285C130.062 32.1285 129.46 32.2825 128.903 32.5905C128.36 32.8985 127.928 33.3605 127.605 33.9765C127.282 34.5778 127.121 35.3185 127.121 36.1985C127.121 37.5038 127.451 38.5158 128.111 39.2345C128.786 39.9385 129.629 40.2905 130.641 40.2905ZM145.208 36.2205L150.796 42.2705H147.408L142.92 37.0565V42.2705H140.412V25.9905H142.92V35.4505L147.32 30.1485H150.796L145.208 36.2205Z" fill="white"/>
<line x1="0.135579" y1="6.08105" x2="143.806" y2="6.05762" stroke="white" stroke-width="2"/>
<line x1="2.23291" y1="66.0811" x2="170.18" y2="66.0811" stroke="white" stroke-width="2"/>
<line x1="1.23291" y1="67.0811" x2="1.23291" y2="7.08105" stroke="white" stroke-width="2"/>
<line x1="169.18" y1="67.0631" x2="168.952" y2="25.4029" stroke="white" stroke-width="2"/>
<path d="M158.126 15.0213V8.81884H151.292V6.75134H158.126V0.548828H160.404V6.75134H167.238V8.81884H160.404V15.0213H158.126Z" fill="#E6681A"/>
<rect x="152.18" y="18.2012" width="11.2122" height="2.65796" fill="#E6681A"/>
<path d="M161.064 19.2725L168.758 10.6164L169.876 12.653L163.39 20.8478L161.064 19.2725Z" fill="#E6681A"/>
</svg>
