<svg width="90" height="87" viewBox="0 0 90 87" fill="none" xmlns="http://www.w3.org/2000/svg">
<rect x="1.25" y="0.75" width="87.5" height="85.5" rx="42.75" fill="#E6F1F9"/>
<path d="M61.1576 28.8564C61.0446 28.745 60.9103 28.6678 60.7663 28.6312C60.6223 28.5946 60.4729 28.5999 60.3311 28.6465L50.2994 31.5848L40.2516 25.6701H40.2353L40.1381 25.6128H40.0247C40.0247 25.5937 40.0085 25.5938 39.9923 25.5938H39.5871L29.2151 28.6465C29.0022 28.7031 28.8122 28.8437 28.6766 29.045C28.541 29.2463 28.468 29.4962 28.4696 29.7531V57.2278C28.4714 57.4005 28.5057 57.5705 28.5702 57.7256C28.6347 57.8807 28.7276 58.017 28.8424 58.1245C29.0117 58.2867 29.2237 58.3744 29.442 58.3726L29.6851 58.3344L39.7005 55.3962L49.7484 61.3109L49.8618 61.3681H49.8943L50.0077 61.4062H50.4291L60.801 58.3535C61.0109 58.2932 61.1972 58.1509 61.3297 57.95C61.4621 57.749 61.5328 57.5012 61.5303 57.2469V29.7531C61.5322 29.5797 61.4995 29.4082 61.4347 29.2524C61.37 29.0967 61.275 28.961 61.1576 28.8564ZM30.4144 30.6499L38.8416 28.1695V53.2783L30.4144 55.7587V30.6499ZM49.2136 58.4298L40.7864 53.4691V28.5511L49.2136 33.5118V58.4298ZM59.5856 56.3311L51.1583 58.8114V33.7026L59.5856 31.2222V56.3311Z" fill="#004D86"/>
<rect x="1.25" y="0.75" width="87.5" height="85.5" rx="42.75" stroke="#0067B2" stroke-width="1.5"/>
</svg>
