<svg width="41" height="41" viewBox="0 0 41 41" fill="none" xmlns="http://www.w3.org/2000/svg">
<rect x="0.937988" y="0.661133" width="40" height="39.92" rx="19.96" fill="white"/>
<path d="M20.938 10.6611C15.438 10.6611 10.938 15.1511 10.938 20.6811C10.938 25.6811 14.598 29.8311 19.378 30.5811V23.5811H16.838V20.6811H19.378V18.4711C19.378 15.9611 20.868 14.5811 23.158 14.5811C24.248 14.5811 25.388 14.7711 25.388 14.7711V17.2411H24.128C22.888 17.2411 22.498 18.0111 22.498 18.8011V20.6811H25.278L24.828 23.5811H22.498V30.5811C24.8544 30.209 27.0002 29.0066 28.5479 27.1912C30.0956 25.3757 30.9433 23.0668 30.938 20.6811C30.938 15.1511 26.438 10.6611 20.938 10.6611Z" fill="#0067B2"/>
</svg>
