<svg width="25" height="22" viewBox="0 0 25 22" fill="none" xmlns="http://www.w3.org/2000/svg">
<path d="M3.3339 4.01631C2.64188 4.01631 1.97819 4.28511 1.48885 4.76356C0.999516 5.24201 0.724609 5.89092 0.724609 6.56756V19.3238C0.724609 20.0004 0.999516 20.6493 1.48885 21.1278C1.97819 21.6062 2.64188 21.875 3.3339 21.875H21.599C22.291 21.875 22.9547 21.6062 23.444 21.1278C23.9333 20.6493 24.2083 20.0004 24.2083 19.3238V6.56756C24.2083 5.89092 23.9333 5.24201 23.444 4.76356C22.9547 4.28511 22.291 4.01631 21.599 4.01631H3.3339ZM3.3339 18.0481L7.90017 12.3078L11.1618 16.1347L15.728 10.3944L21.599 18.0481H3.3339ZM20.2943 0.189453C20.9863 0.189453 21.65 0.458244 22.1394 0.936694C22.6287 1.41514 22.9036 2.06406 22.9036 2.74069H2.02926C2.02926 2.06406 2.30416 1.41514 2.7935 0.936694C3.28284 0.458244 3.94652 0.189453 4.63855 0.189453H20.2943Z" fill="white"/>
</svg>
