<svg width="41" height="38" viewBox="0 0 41 38" fill="none" xmlns="http://www.w3.org/2000/svg">
<rect x="0.717773" y="0.5" width="39" height="36.7256" rx="18.3628" fill="white"/>
<path d="M28.2178 25.5099H26.2178V15.8162L20.2178 19.9706L14.2178 15.8162V25.5099H12.2178V12.2157H13.4178L20.2178 16.9241L27.0178 12.2157H28.2178M28.2178 10H12.2178C11.1078 10 10.2178 10.986 10.2178 12.2157V25.5099C10.2178 26.0975 10.4285 26.6611 10.8036 27.0766C11.1786 27.4921 11.6873 27.7256 12.2178 27.7256H28.2178C28.7482 27.7256 29.2569 27.4921 29.632 27.0766C30.0071 26.6611 30.2178 26.0975 30.2178 25.5099V12.2157C30.2178 11.6281 30.0071 11.0645 29.632 10.649C29.2569 10.2334 28.7482 10 28.2178 10Z" fill="#FF731D"/>
<rect x="0.717773" y="0.5" width="39" height="36.7256" rx="18.3628" stroke="#FF731D"/>
</svg>
