<svg width="41" height="40" viewBox="0 0 41 40" fill="none" xmlns="http://www.w3.org/2000/svg">
<rect x="0.717773" y="0.5" width="39" height="39" rx="19.5" fill="white"/>
<path d="M20.2178 10C22.9348 10 23.2738 10.01 24.3398 10.06C25.4048 10.11 26.1298 10.277 26.7678 10.525C27.4278 10.779 27.9838 11.123 28.5398 11.678C29.0483 12.1779 29.4417 12.7826 29.6928 13.45C29.9398 14.087 30.1078 14.813 30.1578 15.878C30.2048 16.944 30.2178 17.283 30.2178 20C30.2178 22.717 30.2078 23.056 30.1578 24.122C30.1078 25.187 29.9398 25.912 29.6928 26.55C29.4424 27.2178 29.0489 27.8226 28.5398 28.322C28.0397 28.8303 27.4351 29.2238 26.7678 29.475C26.1308 29.722 25.4048 29.89 24.3398 29.94C23.2738 29.987 22.9348 30 20.2178 30C17.5008 30 17.1618 29.99 16.0958 29.94C15.0308 29.89 14.3058 29.722 13.6678 29.475C13.0001 29.2245 12.3953 28.8309 11.8958 28.322C11.3872 27.8222 10.9937 27.2175 10.7428 26.55C10.4948 25.913 10.3278 25.187 10.2778 24.122C10.2308 23.056 10.2178 22.717 10.2178 20C10.2178 17.283 10.2278 16.944 10.2778 15.878C10.3278 14.812 10.4948 14.088 10.7428 13.45C10.993 12.7822 11.3866 12.1773 11.8958 11.678C12.3954 11.1692 13.0002 10.7757 13.6678 10.525C14.3058 10.277 15.0298 10.11 16.0958 10.06C17.1618 10.013 17.5008 10 20.2178 10ZM20.2178 15C18.8917 15 17.6199 15.5268 16.6822 16.4645C15.7446 17.4021 15.2178 18.6739 15.2178 20C15.2178 21.3261 15.7446 22.5979 16.6822 23.5355C17.6199 24.4732 18.8917 25 20.2178 25C21.5439 25 22.8156 24.4732 23.7533 23.5355C24.691 22.5979 25.2178 21.3261 25.2178 20C25.2178 18.6739 24.691 17.4021 23.7533 16.4645C22.8156 15.5268 21.5439 15 20.2178 15ZM26.7178 14.75C26.7178 14.4185 26.5861 14.1005 26.3517 13.8661C26.1172 13.6317 25.7993 13.5 25.4678 13.5C25.1363 13.5 24.8183 13.6317 24.5839 13.8661C24.3495 14.1005 24.2178 14.4185 24.2178 14.75C24.2178 15.0815 24.3495 15.3995 24.5839 15.6339C24.8183 15.8683 25.1363 16 25.4678 16C25.7993 16 26.1172 15.8683 26.3517 15.6339C26.5861 15.3995 26.7178 15.0815 26.7178 14.75ZM20.2178 17C21.0134 17 21.7765 17.3161 22.3391 17.8787C22.9017 18.4413 23.2178 19.2044 23.2178 20C23.2178 20.7956 22.9017 21.5587 22.3391 22.1213C21.7765 22.6839 21.0134 23 20.2178 23C19.4221 23 18.6591 22.6839 18.0965 22.1213C17.5338 21.5587 17.2178 20.7956 17.2178 20C17.2178 19.2044 17.5338 18.4413 18.0965 17.8787C18.6591 17.3161 19.4221 17 20.2178 17Z" fill="#FF731D"/>
<rect x="0.717773" y="0.5" width="39" height="39" rx="19.5" stroke="#FF731D"/>
</svg>
