<svg width="41" height="41" viewBox="0 0 41 41" fill="none" xmlns="http://www.w3.org/2000/svg">
<rect x="0.937988" y="0.581055" width="40" height="40" rx="20" fill="white"/>
<path d="M20.938 10.5811C23.655 10.5811 23.994 10.5911 25.06 10.6411C26.125 10.6911 26.85 10.8581 27.488 11.1061C28.148 11.3601 28.704 11.7041 29.26 12.2591C29.7685 12.759 30.1619 13.3636 30.413 14.0311C30.66 14.6681 30.828 15.3941 30.878 16.4591C30.925 17.5251 30.938 17.8641 30.938 20.5811C30.938 23.2981 30.928 23.6371 30.878 24.7031C30.828 25.7681 30.66 26.4931 30.413 27.1311C30.1627 27.7988 29.7691 28.4037 29.26 28.9031C28.76 29.4114 28.1553 29.8048 27.488 30.0561C26.851 30.3031 26.125 30.4711 25.06 30.5211C23.994 30.5681 23.655 30.5811 20.938 30.5811C18.221 30.5811 17.882 30.5711 16.816 30.5211C15.751 30.4711 15.026 30.3031 14.388 30.0561C13.7203 29.8055 13.1155 29.412 12.616 28.9031C12.1074 28.4032 11.7139 27.7985 11.463 27.1311C11.215 26.4941 11.048 25.7681 10.998 24.7031C10.951 23.6371 10.938 23.2981 10.938 20.5811C10.938 17.8641 10.948 17.5251 10.998 16.4591C11.048 15.3931 11.215 14.6691 11.463 14.0311C11.7132 13.3632 12.1068 12.7584 12.616 12.2591C13.1157 11.7503 13.7204 11.3568 14.388 11.1061C15.026 10.8581 15.75 10.6911 16.816 10.6411C17.882 10.5941 18.221 10.5811 20.938 10.5811ZM20.938 15.5811C19.6119 15.5811 18.3401 16.1078 17.4025 17.0455C16.4648 17.9832 15.938 19.255 15.938 20.5811C15.938 21.9071 16.4648 23.1789 17.4025 24.1166C18.3401 25.0543 19.6119 25.5811 20.938 25.5811C22.2641 25.5811 23.5358 25.0543 24.4735 24.1166C25.4112 23.1789 25.938 21.9071 25.938 20.5811C25.938 19.255 25.4112 17.9832 24.4735 17.0455C23.5358 16.1078 22.2641 15.5811 20.938 15.5811ZM27.438 15.3311C27.438 14.9995 27.3063 14.6816 27.0719 14.4472C26.8375 14.2128 26.5195 14.0811 26.188 14.0811C25.8565 14.0811 25.5385 14.2128 25.3041 14.4472C25.0697 14.6816 24.938 14.9995 24.938 15.3311C24.938 15.6626 25.0697 15.9805 25.3041 16.2149C25.5385 16.4494 25.8565 16.5811 26.188 16.5811C26.5195 16.5811 26.8375 16.4494 27.0719 16.2149C27.3063 15.9805 27.438 15.6626 27.438 15.3311ZM20.938 17.5811C21.7336 17.5811 22.4967 17.8971 23.0593 18.4597C23.6219 19.0223 23.938 19.7854 23.938 20.5811C23.938 21.3767 23.6219 22.1398 23.0593 22.7024C22.4967 23.265 21.7336 23.5811 20.938 23.5811C20.1423 23.5811 19.3793 23.265 18.8167 22.7024C18.2541 22.1398 17.938 21.3767 17.938 20.5811C17.938 19.7854 18.2541 19.0223 18.8167 18.4597C19.3793 17.8971 20.1423 17.5811 20.938 17.5811Z" fill="#0067B2"/>
</svg>
