<svg width="171" height="68" viewBox="0 0 171 68" fill="none" xmlns="http://www.w3.org/2000/svg">
<path d="M26.0698 42.6551C25.0432 42.6551 24.1192 42.4791 23.2978 42.1271C22.4765 41.7604 21.8312 41.2471 21.3618 40.5871C20.8925 39.9271 20.6578 39.1571 20.6578 38.2771H23.3418C23.4005 38.9371 23.6572 39.4798 24.1118 39.9051C24.5812 40.3304 25.2338 40.5431 26.0698 40.5431C26.9352 40.5431 27.6098 40.3378 28.0938 39.9271C28.5778 39.5018 28.8198 38.9591 28.8198 38.2991C28.8198 37.7858 28.6658 37.3678 28.3578 37.0451C28.0645 36.7224 27.6905 36.4731 27.2358 36.2971C26.7958 36.1211 26.1798 35.9304 25.3878 35.7251C24.3905 35.4611 23.5765 35.1971 22.9458 34.9331C22.3298 34.6544 21.8018 34.2291 21.3618 33.6571C20.9218 33.0851 20.7018 32.3224 20.7018 31.3691C20.7018 30.4891 20.9218 29.7191 21.3618 29.0591C21.8018 28.3991 22.4178 27.8931 23.2098 27.5411C24.0018 27.1891 24.9185 27.0131 25.9598 27.0131C27.4412 27.0131 28.6512 27.3871 29.5898 28.1351C30.5432 28.8684 31.0712 29.8804 31.1738 31.1711H28.4018C28.3578 30.6138 28.0938 30.1371 27.6098 29.7411C27.1258 29.3451 26.4878 29.1471 25.6958 29.1471C24.9772 29.1471 24.3905 29.3304 23.9358 29.6971C23.4812 30.0638 23.2538 30.5918 23.2538 31.2811C23.2538 31.7504 23.3932 32.1391 23.6718 32.4471C23.9652 32.7404 24.3318 32.9751 24.7718 33.1511C25.2118 33.3271 25.8132 33.5178 26.5758 33.7231C27.5878 34.0018 28.4092 34.2804 29.0398 34.5591C29.6852 34.8378 30.2278 35.2704 30.6678 35.8571C31.1225 36.4291 31.3498 37.1991 31.3498 38.1671C31.3498 38.9444 31.1372 39.6778 30.7118 40.3671C30.3012 41.0564 29.6925 41.6138 28.8858 42.0391C28.0938 42.4498 27.1552 42.6551 26.0698 42.6551ZM37.8172 32.1611C38.2425 31.6038 38.8218 31.1344 39.5552 30.7531C40.2885 30.3718 41.1172 30.1811 42.0412 30.1811C43.0972 30.1811 44.0578 30.4451 44.9232 30.9731C45.8032 31.4864 46.4925 32.2124 46.9912 33.1511C47.4898 34.0898 47.7392 35.1678 47.7392 36.3851C47.7392 37.6024 47.4898 38.6951 46.9912 39.6631C46.4925 40.6164 45.8032 41.3644 44.9232 41.9071C44.0578 42.4351 43.0972 42.6991 42.0412 42.6991C41.1172 42.6991 40.2958 42.5158 39.5772 42.1491C38.8585 41.7678 38.2718 41.2984 37.8172 40.7411V48.2651H35.3092V30.3791H37.8172V32.1611ZM45.1872 36.3851C45.1872 35.5491 45.0112 34.8304 44.6592 34.2291C44.3218 33.6131 43.8672 33.1511 43.2952 32.8431C42.7378 32.5204 42.1365 32.3591 41.4912 32.3591C40.8605 32.3591 40.2592 32.5204 39.6872 32.8431C39.1298 33.1658 38.6752 33.6351 38.3232 34.2511C37.9858 34.8671 37.8172 35.5931 37.8172 36.4291C37.8172 37.2651 37.9858 37.9984 38.3232 38.6291C38.6752 39.2451 39.1298 39.7144 39.6872 40.0371C40.2592 40.3598 40.8605 40.5211 41.4912 40.5211C42.1365 40.5211 42.7378 40.3598 43.2952 40.0371C43.8672 39.6998 44.3218 39.2158 44.6592 38.5851C45.0112 37.9544 45.1872 37.2211 45.1872 36.3851ZM50.3833 36.3851C50.3833 35.1678 50.6327 34.0898 51.1313 33.1511C51.6447 32.2124 52.334 31.4864 53.1993 30.9731C54.0793 30.4451 55.0473 30.1811 56.1033 30.1811C57.0567 30.1811 57.8853 30.3718 58.5893 30.7531C59.308 31.1198 59.88 31.5818 60.3053 32.1391V30.3791H62.8353V42.5011H60.3053V40.6971C59.88 41.2691 59.3007 41.7458 58.5673 42.1271C57.834 42.5084 56.998 42.6991 56.0593 42.6991C55.018 42.6991 54.0647 42.4351 53.1993 41.9071C52.334 41.3644 51.6447 40.6164 51.1313 39.6631C50.6327 38.6951 50.3833 37.6024 50.3833 36.3851ZM60.3053 36.4291C60.3053 35.5931 60.1293 34.8671 59.7773 34.2511C59.44 33.6351 58.9927 33.1658 58.4353 32.8431C57.878 32.5204 57.2767 32.3591 56.6313 32.3591C55.986 32.3591 55.3847 32.5204 54.8273 32.8431C54.27 33.1511 53.8153 33.6131 53.4633 34.2291C53.126 34.8304 52.9573 35.5491 52.9573 36.3851C52.9573 37.2211 53.126 37.9544 53.4633 38.5851C53.8153 39.2158 54.27 39.6998 54.8273 40.0371C55.3993 40.3598 56.0007 40.5211 56.6313 40.5211C57.2767 40.5211 57.878 40.3598 58.4353 40.0371C58.9927 39.7144 59.44 39.2451 59.7773 38.6291C60.1293 37.9984 60.3053 37.2651 60.3053 36.4291ZM66.2935 36.4291C66.2935 35.1824 66.5428 34.0898 67.0415 33.1511C67.5548 32.1978 68.2588 31.4644 69.1535 30.9511C70.0482 30.4378 71.0748 30.1811 72.2335 30.1811C73.7002 30.1811 74.9102 30.5331 75.8635 31.2371C76.8315 31.9264 77.4842 32.9164 77.8215 34.2071H75.1155C74.8955 33.6058 74.5435 33.1364 74.0595 32.7991C73.5755 32.4618 72.9668 32.2931 72.2335 32.2931C71.2068 32.2931 70.3855 32.6598 69.7695 33.3931C69.1682 34.1118 68.8675 35.1238 68.8675 36.4291C68.8675 37.7344 69.1682 38.7538 69.7695 39.4871C70.3855 40.2204 71.2068 40.5871 72.2335 40.5871C73.6855 40.5871 74.6462 39.9491 75.1155 38.6731H77.8215C77.4695 39.9051 76.8095 40.8878 75.8415 41.6211C74.8735 42.3398 73.6708 42.6991 72.2335 42.6991C71.0748 42.6991 70.0482 42.4424 69.1535 41.9291C68.2588 41.4011 67.5548 40.6678 67.0415 39.7291C66.5428 38.7758 66.2935 37.6758 66.2935 36.4291ZM92.4309 36.1431C92.4309 36.5978 92.4016 37.0084 92.3429 37.3751H83.0809C83.1542 38.3431 83.5136 39.1204 84.1589 39.7071C84.8042 40.2938 85.5962 40.5871 86.5349 40.5871C87.8842 40.5871 88.8376 40.0224 89.3949 38.8931H92.1009C91.7342 40.0078 91.0669 40.9244 90.0989 41.6431C89.1456 42.3471 87.9576 42.6991 86.5349 42.6991C85.3762 42.6991 84.3349 42.4424 83.4109 41.9291C82.5016 41.4011 81.7829 40.6678 81.2549 39.7291C80.7416 38.7758 80.4849 37.6758 80.4849 36.4291C80.4849 35.1824 80.7342 34.0898 81.2329 33.1511C81.7462 32.1978 82.4576 31.4644 83.3669 30.9511C84.2909 30.4378 85.3469 30.1811 86.5349 30.1811C87.6789 30.1811 88.6982 30.4304 89.5929 30.9291C90.4876 31.4278 91.1842 32.1318 91.6829 33.0411C92.1816 33.9358 92.4309 34.9698 92.4309 36.1431ZM89.8129 35.3511C89.7982 34.4271 89.4682 33.6864 88.8229 33.1291C88.1776 32.5718 87.3782 32.2931 86.4249 32.2931C85.5596 32.2931 84.8189 32.5718 84.2029 33.1291C83.5869 33.6718 83.2202 34.4124 83.1029 35.3511H89.8129ZM104.083 34.6471C104.904 34.7938 105.601 35.2264 106.173 35.9451C106.745 36.6638 107.031 37.4778 107.031 38.3871C107.031 39.1644 106.826 39.8684 106.415 40.4991C106.019 41.1151 105.44 41.6064 104.677 41.9731C103.914 42.3251 103.027 42.5011 102.015 42.5011H95.899V27.2111H101.729C102.77 27.2111 103.665 27.3871 104.413 27.7391C105.161 28.0911 105.726 28.5678 106.107 29.1691C106.488 29.7558 106.679 30.4158 106.679 31.1491C106.679 32.0291 106.444 32.7624 105.975 33.3491C105.506 33.9358 104.875 34.3684 104.083 34.6471ZM98.407 33.6351H101.509C102.33 33.6351 102.968 33.4518 103.423 33.0851C103.892 32.7038 104.127 32.1611 104.127 31.4571C104.127 30.7678 103.892 30.2324 103.423 29.8511C102.968 29.4551 102.33 29.2571 101.509 29.2571H98.407V33.6351ZM101.795 40.4551C102.646 40.4551 103.313 40.2498 103.797 39.8391C104.281 39.4284 104.523 38.8564 104.523 38.1231C104.523 37.3751 104.266 36.7811 103.753 36.3411C103.24 35.9011 102.558 35.6811 101.707 35.6811H98.407V40.4551H101.795ZM116.014 42.6991C114.87 42.6991 113.836 42.4424 112.912 41.9291C111.988 41.4011 111.262 40.6678 110.734 39.7291C110.206 38.7758 109.942 37.6758 109.942 36.4291C109.942 35.1971 110.214 34.1044 110.756 33.1511C111.299 32.1978 112.04 31.4644 112.978 30.9511C113.917 30.4378 114.966 30.1811 116.124 30.1811C117.283 30.1811 118.332 30.4378 119.27 30.9511C120.209 31.4644 120.95 32.1978 121.492 33.1511C122.035 34.1044 122.306 35.1971 122.306 36.4291C122.306 37.6611 122.028 38.7538 121.47 39.7071C120.913 40.6604 120.15 41.4011 119.182 41.9291C118.229 42.4424 117.173 42.6991 116.014 42.6991ZM116.014 40.5211C116.66 40.5211 117.261 40.3671 117.818 40.0591C118.39 39.7511 118.852 39.2891 119.204 38.6731C119.556 38.0571 119.732 37.3091 119.732 36.4291C119.732 35.5491 119.564 34.8084 119.226 34.2071C118.889 33.5911 118.442 33.1291 117.884 32.8211C117.327 32.5131 116.726 32.3591 116.08 32.3591C115.435 32.3591 114.834 32.5131 114.276 32.8211C113.734 33.1291 113.301 33.5911 112.978 34.2071C112.656 34.8084 112.494 35.5491 112.494 36.4291C112.494 37.7344 112.824 38.7464 113.484 39.4651C114.159 40.1691 115.002 40.5211 116.014 40.5211ZM131.044 42.6991C129.9 42.6991 128.866 42.4424 127.942 41.9291C127.018 41.4011 126.292 40.6678 125.764 39.7291C125.236 38.7758 124.972 37.6758 124.972 36.4291C124.972 35.1971 125.243 34.1044 125.786 33.1511C126.328 32.1978 127.069 31.4644 128.008 30.9511C128.946 30.4378 129.995 30.1811 131.154 30.1811C132.312 30.1811 133.361 30.4378 134.3 30.9511C135.238 31.4644 135.979 32.1978 136.522 33.1511C137.064 34.1044 137.336 35.1971 137.336 36.4291C137.336 37.6611 137.057 38.7538 136.5 39.7071C135.942 40.6604 135.18 41.4011 134.212 41.9291C133.258 42.4424 132.202 42.6991 131.044 42.6991ZM131.044 40.5211C131.689 40.5211 132.29 40.3671 132.848 40.0591C133.42 39.7511 133.882 39.2891 134.234 38.6731C134.586 38.0571 134.762 37.3091 134.762 36.4291C134.762 35.5491 134.593 34.8084 134.256 34.2071C133.918 33.5911 133.471 33.1291 132.914 32.8211C132.356 32.5131 131.755 32.3591 131.11 32.3591C130.464 32.3591 129.863 32.5131 129.306 32.8211C128.763 33.1291 128.33 33.5911 128.008 34.2071C127.685 34.8084 127.524 35.5491 127.524 36.4291C127.524 37.7344 127.854 38.7464 128.514 39.4651C129.188 40.1691 130.032 40.5211 131.044 40.5211ZM145.611 36.4511L151.199 42.5011H147.811L143.323 37.2871V42.5011H140.815V26.2211H143.323V35.6811L147.723 30.3791H151.199L145.611 36.4511Z" fill="white"/>
<line x1="0.538411" y1="6.31165" x2="144.209" y2="6.28821" stroke="white" stroke-width="2"/>
<line x1="2.63574" y1="66.3116" x2="170.583" y2="66.3116" stroke="white" stroke-width="2"/>
<line x1="1.63574" y1="67.3116" x2="1.63574" y2="7.31165" stroke="white" stroke-width="2"/>
<line x1="169.583" y1="67.2937" x2="169.355" y2="25.6335" stroke="white" stroke-width="2"/>
<path d="M158.529 15.2519V9.04943H151.695V6.98193H158.529V0.779419H160.807V6.98193H167.64V9.04943H160.807V15.2519H158.529Z" fill="#E6681A"/>
<rect x="152.583" y="18.4313" width="11.2122" height="2.65796" fill="#E6681A"/>
<path d="M161.467 19.5024L169.161 10.8463L170.278 12.8829L163.793 21.0777L161.467 19.5024Z" fill="#E6681A"/>
</svg>
