<svg width="39" height="39" viewBox="0 0 39 39" fill="none" xmlns="http://www.w3.org/2000/svg">
<rect x="0.224609" y="0.5" width="38" height="38" rx="19" fill="#E6F0F7"/>
<path d="M27.2898 19.9978L23.6739 23.6621C23.5417 23.7901 23.3661 23.8619 23.1832 23.8627C23.0945 23.863 23.0067 23.8452 22.9249 23.8104C22.7979 23.7583 22.6892 23.6691 22.6125 23.5541C22.5358 23.4391 22.4947 23.3036 22.4944 23.1648V20.1984H17.1567C16.974 20.1984 16.7988 20.1249 16.6697 19.994C16.5405 19.8631 16.4679 19.6856 16.4679 19.5005C16.4679 19.3154 16.5405 19.1378 16.6697 19.007C16.7988 18.8761 16.974 18.8025 17.1567 18.8025H22.4944V15.8362C22.4947 15.6974 22.5358 15.5619 22.6125 15.4469C22.6892 15.3319 22.7979 15.2426 22.9249 15.1906C23.0507 15.14 23.1881 15.1271 23.3209 15.1534C23.4537 15.1796 23.5762 15.2441 23.6739 15.3389L27.2898 19.0032C27.4191 19.1355 27.4917 19.3142 27.4917 19.5005C27.4917 19.6867 27.4191 19.8655 27.2898 19.9978ZM17.1567 26.4801H12.3355V12.5209H17.1567C17.3394 12.5209 17.5145 12.4474 17.6437 12.3165C17.7729 12.1856 17.8454 12.0081 17.8454 11.823C17.8454 11.6378 17.7729 11.4603 17.6437 11.3294C17.5145 11.1985 17.3394 11.125 17.1567 11.125H12.3355C11.9702 11.125 11.6198 11.2721 11.3615 11.5339C11.1031 11.7956 10.958 12.1507 10.958 12.5209V26.4801C10.958 26.8503 11.1031 27.2053 11.3615 27.4671C11.6198 27.7289 11.9702 27.876 12.3355 27.876H17.1567C17.3394 27.876 17.5145 27.8024 17.6437 27.6715C17.7729 27.5407 17.8454 27.3631 17.8454 27.178C17.8454 26.9929 17.7729 26.8154 17.6437 26.6845C17.5145 26.5536 17.3394 26.4801 17.1567 26.4801Z" fill="#111111"/>
</svg>
