<svg width="23" height="24" viewBox="0 0 23 24" fill="none" xmlns="http://www.w3.org/2000/svg">
<path d="M11.7305 20.2728L10.2019 17.0352L6.83898 15.5636L10.2019 14.092L11.7305 10.8544L13.2591 14.092L16.622 15.5636L13.2591 17.0352L11.7305 20.2728ZM3.17036 23.8047C2.49778 23.8047 1.9218 23.5739 1.44244 23.1124C0.963072 22.6509 0.723796 22.0968 0.724611 21.4501V4.96797C0.724611 4.32046 0.964295 3.76595 1.44366 3.30445C1.92303 2.84295 2.49859 2.61259 3.17036 2.61338H4.39323V0.258789H6.83898V2.61338H16.622V0.258789H19.0677V2.61338H20.2906C20.9632 2.61338 21.5391 2.84413 22.0185 3.30563C22.4979 3.76713 22.7371 4.32124 22.7363 4.96797V21.4501C22.7363 22.0976 22.4966 22.6521 22.0173 23.1136C21.5379 23.5751 20.9623 23.8055 20.2906 23.8047H3.17036ZM3.17036 21.4501H20.2906V9.67715H3.17036V21.4501Z" fill="white"/>
</svg>
