<svg width="90" height="87" viewBox="0 0 90 87" fill="none" xmlns="http://www.w3.org/2000/svg">
<rect x="1.28223" y="0.75" width="87.5" height="85.5" rx="42.75" fill="#E6F1F9"/>
<path d="M43.0174 37.2242V44.4332C43.0174 45.1189 43.3979 45.7653 43.9987 46.1179L50.247 49.742C50.9679 50.1534 51.8892 49.9183 52.3097 49.2327C52.7303 48.5275 52.51 47.6263 51.789 47.215L46.0414 43.8651V37.2047C46.0214 36.4211 45.3405 35.755 44.5194 35.755C43.6983 35.755 43.0174 36.4211 43.0174 37.2242ZM63.044 38.6935V28.3306C63.044 27.449 61.9626 27.0181 61.3417 27.6449L57.777 31.1319C55.901 29.2967 53.6344 27.8889 51.1387 27.0085C48.6429 26.1281 45.9794 25.797 43.3378 26.0386C34.9466 26.783 28.0374 33.3847 27.1162 41.5927C26.6292 46.1951 28.0114 50.8002 30.9644 54.4147C33.9174 58.0291 38.2047 60.3632 42.9013 60.9134C47.5979 61.4635 52.3273 60.1857 56.0694 57.3555C59.8114 54.5253 62.2661 50.3696 62.9038 45.7849C63.044 44.6095 62.1027 43.5909 60.9011 43.5909C59.8998 43.5909 59.0587 44.3157 58.9385 45.2756C58.0774 52.1124 52.0494 57.4016 44.8198 57.3036C37.3899 57.2057 31.1215 51.0741 31.0014 43.7868C30.8812 36.1468 37.2297 29.8781 45.02 29.8781C48.8852 29.8781 52.3898 31.4257 54.9332 33.894L50.7476 37.9882C50.1068 38.6151 50.5474 39.6729 51.4486 39.6729H62.0427C62.6034 39.6729 63.044 39.242 63.044 38.6935Z" fill="#004D86"/>
<rect x="1.28223" y="0.75" width="87.5" height="85.5" rx="42.75" stroke="#0067B2" stroke-width="1.5"/>
</svg>
