<svg width="20" height="27" viewBox="0 0 20 27" fill="none" xmlns="http://www.w3.org/2000/svg">
<path d="M8.47742 22.2738H10.8995V17.0406L12.8372 19.0461L14.5327 17.2599L9.68848 12.246L4.84424 17.2599L6.57 19.0148L8.47742 17.0406V22.2738ZM2.42212 26.0342C1.75604 26.0342 1.18563 25.7885 0.710894 25.2971C0.236158 24.8058 -0.000805317 24.2158 2.05613e-06 23.5272V3.47178C2.05613e-06 2.78237 0.237369 2.19199 0.712105 1.70063C1.18684 1.20927 1.75685 0.96401 2.42212 0.964846H12.1106L19.377 8.48565V23.5272C19.377 24.2167 19.1396 24.807 18.6649 25.2984C18.1901 25.7898 17.6201 26.035 16.9548 26.0342H2.42212ZM10.8995 9.73911V3.47178H2.42212V23.5272H16.9548V9.73911H10.8995Z" fill="white"/>
</svg>
