<svg width="41" height="40" viewBox="0 0 41 40" fill="none" xmlns="http://www.w3.org/2000/svg">
<rect x="0.717773" y="0.5" width="39" height="39" rx="19.5" fill="white"/>
<path d="M10.2218 30L11.5738 25.032C10.6829 23.5049 10.2149 21.768 10.2178 20C10.2178 14.477 14.6948 10 20.2178 10C25.7408 10 30.2178 14.477 30.2178 20C30.2178 25.523 25.7408 30 20.2178 30C18.4506 30.0029 16.7144 29.5352 15.1878 28.645L10.2218 30ZM16.6088 15.308C16.4796 15.316 16.3535 15.35 16.2378 15.408C16.1293 15.4694 16.0303 15.5462 15.9438 15.636C15.8238 15.749 15.7558 15.847 15.6828 15.942C15.3132 16.423 15.1144 17.0134 15.1178 17.62C15.1198 18.11 15.2478 18.587 15.4478 19.033C15.8568 19.935 16.5298 20.89 17.4188 21.775C17.6328 21.988 17.8418 22.202 18.0668 22.401C19.1702 23.3725 20.485 24.073 21.9068 24.447L22.4758 24.534C22.6608 24.544 22.8458 24.53 23.0318 24.521C23.323 24.506 23.6074 24.4271 23.8648 24.29C23.9957 24.2225 24.1235 24.1491 24.2478 24.07C24.2478 24.07 24.2908 24.042 24.3728 23.98C24.5078 23.88 24.5908 23.809 24.7028 23.692C24.7858 23.606 24.8578 23.505 24.9128 23.39C24.9908 23.227 25.0688 22.916 25.1008 22.657C25.1248 22.459 25.1178 22.351 25.1148 22.284C25.1108 22.177 25.0218 22.066 24.9248 22.019L24.3428 21.758C24.3428 21.758 23.4728 21.379 22.9418 21.137C22.8858 21.1126 22.8258 21.0987 22.7648 21.096C22.6964 21.089 22.6272 21.0967 22.562 21.1186C22.4968 21.1405 22.4371 21.1761 22.3868 21.223V21.221C22.3818 21.221 22.3148 21.278 21.5918 22.154C21.5503 22.2098 21.4931 22.2519 21.4276 22.2751C21.3621 22.2982 21.2911 22.3013 21.2238 22.284C21.1586 22.2666 21.0948 22.2445 21.0328 22.218C20.9088 22.166 20.8658 22.146 20.7808 22.109L20.7758 22.107C20.2037 21.8572 19.674 21.5198 19.2058 21.107C19.0798 20.997 18.9628 20.877 18.8428 20.761C18.4494 20.3842 18.1065 19.958 17.8228 19.493L17.7638 19.398C17.7214 19.3342 17.6871 19.2653 17.6618 19.193C17.6238 19.046 17.7228 18.928 17.7228 18.928C17.7228 18.928 17.9658 18.662 18.0788 18.518C18.1729 18.3983 18.2607 18.2738 18.3418 18.145C18.4598 17.955 18.4968 17.76 18.4348 17.609C18.1548 16.925 17.8648 16.244 17.5668 15.568C17.5078 15.434 17.3328 15.338 17.1738 15.319C17.1198 15.313 17.0658 15.307 17.0118 15.303C16.8775 15.2963 16.7429 15.2987 16.6088 15.308Z" fill="#FF731D"/>
<rect x="0.717773" y="0.5" width="39" height="39" rx="19.5" stroke="#FF731D"/>
</svg>
