<svg width="21" height="18" viewBox="0 0 21 18" fill="none" xmlns="http://www.w3.org/2000/svg">
<path d="M0.98903 18C0.805697 18 0.63903 17.954 0.48903 17.862C0.33903 17.77 0.222364 17.6493 0.139031 17.5C0.0556972 17.35 0.00969715 17.1873 0.00103049 17.012C-0.00763618 16.8367 0.0383638 16.666 0.139031 16.5L9.38903 0.5C9.48903 0.333333 9.61836 0.208333 9.77703 0.125C9.9357 0.0416667 10.098 0 10.264 0C10.4307 0 10.5934 0.0416667 10.752 0.125C10.9107 0.208333 11.0397 0.333333 11.139 0.5L20.389 16.5C20.489 16.6667 20.535 16.8377 20.527 17.013C20.519 17.1883 20.473 17.3507 20.389 17.5C20.3057 17.65 20.189 17.771 20.039 17.863C19.889 17.955 19.7224 18.0007 19.539 18H0.98903ZM10.264 15C10.5474 15 10.785 14.904 10.977 14.712C11.169 14.52 11.2647 14.2827 11.264 14C11.264 13.7167 11.168 13.479 10.976 13.287C10.784 13.095 10.5467 12.9993 10.264 13C9.9807 13 9.74303 13.096 9.55103 13.288C9.35903 13.48 9.26336 13.7173 9.26403 14C9.26403 14.2833 9.36003 14.521 9.55203 14.713C9.74403 14.905 9.98136 15.0007 10.264 15ZM10.264 12C10.5474 12 10.785 11.904 10.977 11.712C11.169 11.52 11.2647 11.2827 11.264 11V8C11.264 7.71667 11.168 7.479 10.976 7.287C10.784 7.095 10.5467 6.99933 10.264 7C9.9807 7 9.74303 7.096 9.55103 7.288C9.35903 7.48 9.26336 7.71733 9.26403 8V11C9.26403 11.2833 9.36003 11.521 9.55203 11.713C9.74403 11.905 9.98136 12.0007 10.264 12Z" fill="#ED0303"/>
</svg>
