<svg width="41" height="41" viewBox="0 0 41 41" fill="none" xmlns="http://www.w3.org/2000/svg">
<rect x="0.937988" y="0.581055" width="40" height="40" rx="20" fill="white"/>
<path d="M10.942 30.5811L12.294 25.6131C11.4031 24.0859 10.9351 22.349 10.938 20.5811C10.938 15.0581 15.415 10.5811 20.938 10.5811C26.461 10.5811 30.938 15.0581 30.938 20.5811C30.938 26.1041 26.461 30.5811 20.938 30.5811C19.1708 30.5839 17.4347 30.1162 15.908 29.2261L10.942 30.5811ZM17.329 15.8891C17.1999 15.8971 17.0737 15.9311 16.958 15.9891C16.8495 16.0505 16.7505 16.1273 16.664 16.2171C16.544 16.3301 16.476 16.4281 16.403 16.5231C16.0334 17.0041 15.8346 17.5945 15.838 18.2011C15.84 18.6911 15.968 19.1681 16.168 19.6141C16.577 20.5161 17.25 21.4711 18.139 22.3561C18.353 22.5691 18.562 22.7831 18.787 22.9821C19.8904 23.9535 21.2053 24.6541 22.627 25.0281L23.196 25.1151C23.381 25.1251 23.566 25.1111 23.752 25.1021C24.0432 25.087 24.3276 25.0082 24.585 24.8711C24.716 24.8036 24.8438 24.7302 24.968 24.6511C24.968 24.6511 25.011 24.6231 25.093 24.5611C25.228 24.4611 25.311 24.3901 25.423 24.2731C25.506 24.1871 25.578 24.0861 25.633 23.9711C25.711 23.8081 25.789 23.4971 25.821 23.2381C25.845 23.0401 25.838 22.9321 25.835 22.8651C25.831 22.7581 25.742 22.6471 25.645 22.6001L25.063 22.3391C25.063 22.3391 24.193 21.9601 23.662 21.7181C23.606 21.6937 23.546 21.6798 23.485 21.6771C23.4166 21.67 23.3475 21.6777 23.2823 21.6996C23.2171 21.7215 23.1573 21.7571 23.107 21.8041V21.8021C23.102 21.8021 23.035 21.8591 22.312 22.7351C22.2705 22.7908 22.2133 22.833 22.1478 22.8561C22.0823 22.8793 22.0113 22.8824 21.944 22.8651C21.8788 22.8476 21.815 22.8256 21.753 22.7991C21.629 22.7471 21.586 22.7271 21.501 22.6901L21.496 22.6881C20.9239 22.4383 20.3942 22.1009 19.926 21.6881C19.8 21.5781 19.683 21.4581 19.563 21.3421C19.1696 20.9653 18.8267 20.5391 18.543 20.0741L18.484 19.9791C18.4416 19.9152 18.4074 19.8464 18.382 19.7741C18.344 19.6271 18.443 19.5091 18.443 19.5091C18.443 19.5091 18.686 19.2431 18.799 19.0991C18.8931 18.9794 18.9809 18.8549 19.062 18.7261C19.18 18.5361 19.217 18.3411 19.155 18.1901C18.875 17.5061 18.585 16.8251 18.287 16.1491C18.228 16.0151 18.053 15.9191 17.894 15.9001C17.84 15.8941 17.786 15.8881 17.732 15.8841C17.5977 15.8774 17.4631 15.8797 17.329 15.8891Z" fill="#0067B2"/>
</svg>
